<?xml version="1.0" encoding="UTF-8" standalone="no"?>
<svg
   xmlns:dc="http://purl.org/dc/elements/1.1/"
   xmlns:cc="http://creativecommons.org/ns#"
   xmlns:rdf="http://www.w3.org/1999/02/22-rdf-syntax-ns#"
   xmlns:svg="http://www.w3.org/2000/svg"
   xmlns="http://www.w3.org/2000/svg"
   xmlns:sodipodi="http://sodipodi.sourceforge.net/DTD/sodipodi-0.dtd"
   xmlns:inkscape="http://www.inkscape.org/namespaces/inkscape"
   height="94"
   viewBox="0 0 94 94"
   width="94"
   version="1.1"
   id="svg937"
   sodipodi:docname="app_icon.svg"
   inkscape:version="1.0.2 (e86c8708, 2021-01-15)">
  <metadata
     id="metadata941">
    <rdf:RDF>
      <cc:Work
         rdf:about="">
        <dc:format>image/svg+xml</dc:format>
        <dc:type
           rdf:resource="http://purl.org/dc/dcmitype/StillImage" />
        <dc:title></dc:title>
      </cc:Work>
    </rdf:RDF>
  </metadata>
  <sodipodi:namedview
     pagecolor="#ffffff"
     bordercolor="#666666"
     borderopacity="1"
     objecttolerance="10"
     gridtolerance="10"
     guidetolerance="10"
     inkscape:pageopacity="0"
     inkscape:pageshadow="2"
     inkscape:window-width="1364"
     inkscape:window-height="998"
     id="namedview939"
     showgrid="false"
     inkscape:zoom="5.5625"
     inkscape:cx="64"
     inkscape:cy="64"
     inkscape:window-x="70"
     inkscape:window-y="25"
     inkscape:window-maximized="0"
     inkscape:current-layer="svg937" />
  <defs
     id="defs835">
    <style
       id="style833">
      .cls-1 {
        fill: #e9faff;
      }

      .cls-2 {
        fill: #ff859e;
      }

      .cls-3 {
        fill: #f97594;
      }

      .cls-4 {
        fill: none;
        stroke: #556193;
        stroke-miterlimit: 10;
        stroke-width: 2px;
      }
    </style>
  </defs>
  <g
     id="circle" />
  <g
     id="icon"
     transform="translate(-15.460675,-16.539325)">
    <g
       id="g934">
      <g
         id="g884">
        <circle
           class="cls-2"
           cx="63.5"
           cy="63.5"
           r="31.5"
           id="circle842" />
        <path
           class="cls-3"
           d="M 64.5,32 A 31.33,31.33 0 0 0 47.5,37 28.75,28.75 0 1 1 42.29,85.85 31.5,31.5 0 1 0 64.5,32 Z"
           id="path844" />
        <path
           class="cls-2"
           d="m 59.72,87 c 1.56,1.55 2.33,6.33 2.59,8.51 a 11.63,11.63 0 0 1 -1.26,7.42 c -0.75,1.2 -2,2.37 -1.69,3.76 a 2.57,2.57 0 0 0 1.86,1.75 22.14,22.14 0 0 0 5.75,0 2.54,2.54 0 0 0 1.85,-1.75 c 0.31,-1.39 -0.93,-2.56 -1.68,-3.76 a 11.4,11.4 0 0 1 -1.42,-7.34 c 0.26,-2.18 1.18,-7 2.75,-8.59"
           id="path846" />
        <path
           class="cls-2"
           d="m 59.72,87 c 1.56,1.55 2.33,6.33 2.59,8.51 a 11.63,11.63 0 0 1 -1.26,7.42 c -0.75,1.2 -2,2.37 -1.69,3.76 a 2.57,2.57 0 0 0 1.86,1.75 22.14,22.14 0 0 0 5.75,0 2.54,2.54 0 0 0 1.85,-1.75 c 0.31,-1.39 -0.93,-2.56 -1.68,-3.76 a 11.4,11.4 0 0 1 -1.42,-7.34 c 0.26,-2.18 1.18,-7 2.75,-8.59 z"
           id="path848" />
        <path
           class="cls-2"
           d="m 78.12,91.43 0.51,0.66 a 11.6,11.6 0 0 1 2.62,7 c 0,1.42 -0.54,3.06 0.42,4.1 a 2.54,2.54 0 0 0 2.48,0.6 22.27,22.27 0 0 0 5,-2.88 2.55,2.55 0 0 0 0.73,-2.45 c -0.43,-1.35 -2.09,-1.74 -3.34,-2.41 a 11.35,11.35 0 0 1 -4.89,-5.64 c -0.09,-0.2 -0.19,-0.43 -0.28,-0.68 z"
           id="path850" />
        <path
           class="cls-2"
           d="m 88.76,81.58 a 32.74,32.74 0 0 1 5.62,1.89 11.55,11.55 0 0 1 5.79,4.79 c 0.67,1.25 1.06,2.92 2.42,3.34 a 2.56,2.56 0 0 0 2.45,-0.73 22.56,22.56 0 0 0 2.87,-5 2.57,2.57 0 0 0 -0.59,-2.49 c -1,-1 -2.69,-0.47 -4.1,-0.42 a 11.39,11.39 0 0 1 -7.06,-2.44 28.77,28.77 0 0 1 -4.77,-4.45 z"
           id="path852" />
        <path
           class="cls-2"
           d="m 34.8,77.28 a 32.81,32.81 0 0 1 -4.44,3.92 11.6,11.6 0 0 1 -7,2.62 c -1.42,0 -3,-0.54 -4.1,0.42 a 2.55,2.55 0 0 0 -0.59,2.49 21.79,21.79 0 0 0 2.87,5 2.56,2.56 0 0 0 2.45,0.73 c 1.35,-0.42 1.75,-2.09 2.41,-3.34 A 11.42,11.42 0 0 1 32,84.2 30.64,30.64 0 0 1 37.4,82.45 Z"
           id="path854" />
        <path
           class="cls-2"
           d="m 46.27,90.73 a 11.27,11.27 0 0 1 -4.6,5.37 c -1.25,0.67 -2.92,1.06 -3.34,2.41 a 2.55,2.55 0 0 0 0.73,2.45 22.21,22.21 0 0 0 5,2.88 2.55,2.55 0 0 0 2.49,-0.6 c 1,-1 0.47,-2.68 0.42,-4.1 a 11.34,11.34 0 0 1 2.33,-6.91 z"
           id="path856" />
        <path
           class="cls-2"
           d="m 66.8,40.87 c -1.56,-1.55 -2.33,-6.33 -2.58,-8.51 a 11.56,11.56 0 0 1 1.25,-7.42 c 0.76,-1.2 2,-2.37 1.69,-3.76 a 2.54,2.54 0 0 0 -1.86,-1.75 22.06,22.06 0 0 0 -5.74,0 2.54,2.54 0 0 0 -1.86,1.75 c -0.3,1.39 0.94,2.56 1.69,3.76 a 11.46,11.46 0 0 1 1.42,7.34 c -0.26,2.18 -1.19,7 -2.75,8.59"
           id="path858" />
        <path
           class="cls-2"
           d="m 66.8,41 c -1.56,-1.55 -2.33,-6.33 -2.58,-8.51 a 11.56,11.56 0 0 1 1.25,-7.42 c 0.76,-1.2 2,-2.37 1.69,-3.76 a 2.56,2.56 0 0 0 -1.86,-1.75 22.06,22.06 0 0 0 -5.74,0 2.56,2.56 0 0 0 -1.86,1.75 c -0.3,1.39 0.94,2.56 1.69,3.76 a 11.46,11.46 0 0 1 1.42,7.34 c -0.26,2.18 -1.19,7 -2.75,8.59 z"
           id="path860" />
        <path
           class="cls-2"
           d="m 48.4,36.44 c -0.19,-0.25 -0.36,-0.47 -0.5,-0.67 a 11.49,11.49 0 0 1 -2.62,-7.05 c 0,-1.41 0.53,-3 -0.42,-4.1 A 2.58,2.58 0 0 0 42.37,24 a 22.56,22.56 0 0 0 -5,2.87 2.57,2.57 0 0 0 -0.74,2.45 c 0.43,1.35 2.09,1.75 3.35,2.41 a 11.46,11.46 0 0 1 4.89,5.65 c 0.09,0.2 0.18,0.43 0.28,0.68 z"
           id="path862" />
        <path
           class="cls-2"
           d="m 37.77,46.29 a 33.32,33.32 0 0 1 -5.62,-1.89 11.58,11.58 0 0 1 -5.8,-4.79 c -0.66,-1.26 -1.06,-2.92 -2.41,-3.35 a 2.56,2.56 0 0 0 -2.45,0.73 21.86,21.86 0 0 0 -2.87,5 2.55,2.55 0 0 0 0.59,2.49 c 1.05,0.95 2.68,0.47 4.1,0.41 a 11.45,11.45 0 0 1 7.06,2.45 29.92,29.92 0 0 1 4.77,4.44 z"
           id="path864" />
        <path
           class="cls-2"
           d="m 39,60.15 c -1.55,1.56 -6.33,2.33 -8.51,2.59 a 11.63,11.63 0 0 1 -7.42,-1.26 c -1.2,-0.75 -2.37,-2 -3.76,-1.69 a 2.56,2.56 0 0 0 -1.75,1.86 22.14,22.14 0 0 0 0,5.75 2.54,2.54 0 0 0 1.75,1.85 c 1.39,0.31 2.56,-0.93 3.76,-1.68 a 11.4,11.4 0 0 1 7.34,-1.42 c 2.18,0.26 7,1.18 8.59,2.75 z"
           id="path866" />
        <path
           class="cls-2"
           d="m 86,68.9 c 1.55,-1.57 6.33,-2.33 8.51,-2.59 a 11.56,11.56 0 0 1 7.42,1.26 c 1.2,0.75 2.37,2 3.76,1.68 a 2.54,2.54 0 0 0 1.75,-1.85 22.14,22.14 0 0 0 0,-5.75 2.56,2.56 0 0 0 -1.75,-1.86 c -1.39,-0.3 -2.56,0.94 -3.76,1.69 a 11.46,11.46 0 0 1 -7.34,1.42 c -2.18,-0.26 -7,-1.19 -8.59,-2.75 z"
           id="path868" />
        <path
           class="cls-2"
           d="m 91.73,50.59 a 32.13,32.13 0 0 1 4.44,-3.92 11.57,11.57 0 0 1 7,-2.63 c 1.41,0.06 3,0.54 4.1,-0.41 a 2.58,2.58 0 0 0 0.59,-2.49 22.62,22.62 0 0 0 -2.87,-5 2.56,2.56 0 0 0 -2.45,-0.73 c -1.36,0.43 -1.75,2.09 -2.42,3.35 a 11.4,11.4 0 0 1 -5.64,4.89 32.54,32.54 0 0 1 -5.41,1.75 z"
           id="path870" />
        <path
           class="cls-2"
           d="m 80.25,37.14 a 11.36,11.36 0 0 1 4.61,-5.38 c 1.25,-0.66 2.91,-1.06 3.34,-2.41 a 2.56,2.56 0 0 0 -0.73,-2.45 22.62,22.62 0 0 0 -5,-2.87 2.55,2.55 0 0 0 -2.48,0.59 c -1,1.05 -0.47,2.69 -0.42,4.1 a 11.29,11.29 0 0 1 -2.33,6.91 z"
           id="path872" />
        <circle
           class="cls-3"
           cx="49.5"
           cy="52.5"
           r="4.5"
           id="circle874" />
        <circle
           class="cls-3"
           cx="77.5"
           cy="77.5"
           r="4.5"
           id="circle876" />
        <circle
           class="cls-3"
           cx="64.5"
           cy="65.5"
           r="4.5"
           id="circle878" />
        <circle
           class="cls-3"
           cx="74.5"
           cy="49.5"
           r="4.5"
           id="circle880" />
        <circle
           class="cls-3"
           cx="49.5"
           cy="76.5"
           r="4.5"
           id="circle882" />
      </g>
      <g
         id="g932">
        <path
           class="cls-4"
           d="m 32,62.12 a 31.5,31.5 0 0 1 28.67,-30"
           id="path886" />
        <path
           class="cls-4"
           d="M 62.52,95 A 31.51,31.51 0 0 1 32.11,66.2"
           id="path888" />
        <path
           class="cls-4"
           d="M 94.89,66.15 A 31.51,31.51 0 0 1 66,94.9"
           id="path890" />
        <path
           class="cls-4"
           d="M 64,32 A 31.5,31.5 0 0 1 95,62.78"
           id="path892" />
        <path
           class="cls-4"
           d="m 66.8,40.87 c -1.56,-1.55 -2.33,-6.33 -2.58,-8.51 a 11.56,11.56 0 0 1 1.25,-7.42 c 0.76,-1.2 2,-2.37 1.69,-3.76 a 2.54,2.54 0 0 0 -1.86,-1.75 22.06,22.06 0 0 0 -5.74,0 2.54,2.54 0 0 0 -1.86,1.75 c -0.3,1.39 0.94,2.56 1.69,3.76 a 11.46,11.46 0 0 1 1.42,7.34 c -0.26,2.18 -1.19,7 -2.75,8.59"
           id="path894" />
        <path
           class="cls-4"
           d="m 66.8,40.87 c -1.56,-1.55 -2.33,-6.33 -2.58,-8.51 a 11.56,11.56 0 0 1 1.25,-7.42 c 0.76,-1.2 2,-2.37 1.69,-3.76 a 2.54,2.54 0 0 0 -1.86,-1.75 22.06,22.06 0 0 0 -5.74,0 2.54,2.54 0 0 0 -1.86,1.75 c -0.3,1.39 0.94,2.56 1.69,3.76 a 11.46,11.46 0 0 1 1.42,7.34 c -0.26,2.18 -1.19,7 -2.75,8.59"
           id="path896" />
        <path
           class="cls-4"
           d="m 48.4,36.44 c -0.19,-0.25 -0.36,-0.47 -0.5,-0.67 a 11.49,11.49 0 0 1 -2.62,-7.05 c 0,-1.41 0.53,-3 -0.42,-4.1 A 2.58,2.58 0 0 0 42.37,24 a 22.56,22.56 0 0 0 -5,2.87 2.57,2.57 0 0 0 -0.74,2.45 c 0.43,1.35 2.09,1.75 3.35,2.41 a 11.46,11.46 0 0 1 4.89,5.65 c 0.09,0.2 0.18,0.43 0.28,0.68"
           id="path898" />
        <path
           class="cls-4"
           d="m 37.77,46.29 a 33.32,33.32 0 0 1 -5.62,-1.89 11.58,11.58 0 0 1 -5.8,-4.79 c -0.66,-1.26 -1.06,-2.92 -2.41,-3.35 a 2.56,2.56 0 0 0 -2.45,0.73 21.86,21.86 0 0 0 -2.87,5 2.55,2.55 0 0 0 0.59,2.49 c 1.05,0.95 2.68,0.47 4.1,0.41 a 11.45,11.45 0 0 1 7.06,2.45 31,31 0 0 1 4.38,4"
           id="path900" />
        <path
           class="cls-4"
           d="m 38.78,60.15 c -1.55,1.56 -6.33,2.33 -8.51,2.59 a 11.63,11.63 0 0 1 -7.42,-1.26 c -1.2,-0.75 -2.38,-2 -3.76,-1.69 a 2.57,2.57 0 0 0 -1.76,1.86 23.05,23.05 0 0 0 0,5.75 2.56,2.56 0 0 0 1.76,1.85 c 1.38,0.31 2.56,-0.93 3.76,-1.68 a 11.38,11.38 0 0 1 7.33,-1.42 c 2.19,0.26 7,1.18 8.6,2.75"
           id="path902" />
        <path
           class="cls-4"
           d="m 86.09,68.9 c 1.54,-1.57 6.32,-2.33 8.51,-2.59 a 11.53,11.53 0 0 1 7.4,1.26 c 1.21,0.75 2.38,2 3.76,1.68 a 2.54,2.54 0 0 0 1.76,-1.85 22.14,22.14 0 0 0 0,-5.75 2.55,2.55 0 0 0 -1.76,-1.86 c -1.38,-0.3 -2.55,0.94 -3.76,1.69 a 11.44,11.44 0 0 1 -7.33,1.42 c -2.18,-0.26 -7.05,-1.19 -8.59,-2.75"
           id="path904" />
        <path
           class="cls-4"
           d="m 91.73,50.59 a 32.13,32.13 0 0 1 4.44,-3.92 11.57,11.57 0 0 1 7,-2.63 c 1.41,0.06 3,0.54 4.1,-0.41 a 2.58,2.58 0 0 0 0.59,-2.49 22.62,22.62 0 0 0 -2.87,-5 2.56,2.56 0 0 0 -2.45,-0.73 c -1.36,0.43 -1.75,2.09 -2.42,3.35 a 11.4,11.4 0 0 1 -5.64,4.89 32.54,32.54 0 0 1 -5.41,1.75"
           id="path906" />
        <path
           class="cls-4"
           d="m 80.25,37.14 a 11.36,11.36 0 0 1 4.61,-5.38 c 1.25,-0.66 2.91,-1.06 3.34,-2.41 a 2.56,2.56 0 0 0 -0.73,-2.45 22.62,22.62 0 0 0 -5,-2.87 2.55,2.55 0 0 0 -2.48,0.59 c -1,1.05 -0.47,2.69 -0.42,4.1 a 11.29,11.29 0 0 1 -2.33,6.91"
           id="path908" />
        <path
           class="cls-4"
           d="m 59.72,86.62 c 1.56,1.54 2.33,6.32 2.59,8.51 a 11.6,11.6 0 0 1 -1.26,7.41 c -0.75,1.21 -2,2.38 -1.69,3.76 a 2.57,2.57 0 0 0 1.86,1.76 22.14,22.14 0 0 0 5.75,0 2.54,2.54 0 0 0 1.85,-1.76 c 0.31,-1.38 -0.93,-2.55 -1.68,-3.76 a 11.37,11.37 0 0 1 -1.42,-7.33 c 0.26,-2.18 1.18,-7 2.75,-8.59"
           id="path910" />
        <path
           class="cls-4"
           d="m 59.72,86.62 c 1.56,1.54 2.33,6.32 2.59,8.51 a 11.6,11.6 0 0 1 -1.26,7.41 c -0.75,1.21 -2,2.38 -1.69,3.76 a 2.57,2.57 0 0 0 1.86,1.76 22.14,22.14 0 0 0 5.75,0 2.54,2.54 0 0 0 1.85,-1.76 c 0.31,-1.38 -0.93,-2.55 -1.68,-3.76 a 11.37,11.37 0 0 1 -1.42,-7.33 c 0.26,-2.18 1.18,-7 2.75,-8.59"
           id="path912" />
        <path
           class="cls-4"
           d="m 78.63,91.71 a 11.6,11.6 0 0 1 2.62,7.05 c 0,1.42 -0.54,3.06 0.42,4.1 a 2.54,2.54 0 0 0 2.48,0.59 21.86,21.86 0 0 0 5,-2.87 2.56,2.56 0 0 0 0.73,-2.45 C 89.45,96.78 87.79,96.38 86.54,95.72 A 11.39,11.39 0 0 1 81.65,90.08 C 81.56,89.87 81.46,89.65 81.37,89.4"
           id="path914" />
        <path
           class="cls-4"
           d="m 90.15,81.55 a 37.82,37.82 0 0 1 4.23,1.53 11.57,11.57 0 0 1 5.79,4.8 c 0.67,1.25 1.06,2.91 2.42,3.34 a 2.56,2.56 0 0 0 2.45,-0.73 22.62,22.62 0 0 0 2.87,-5 2.56,2.56 0 0 0 -0.59,-2.48 c -1,-1 -2.69,-0.47 -4.1,-0.42 a 11.39,11.39 0 0 1 -7.06,-2.44 33.19,33.19 0 0 1 -3.7,-3.25"
           id="path916" />
        <path
           class="cls-4"
           d="m 34.8,76.9 a 32.81,32.81 0 0 1 -4.44,3.92 11.6,11.6 0 0 1 -7,2.62 c -1.42,0 -3,-0.54 -4.1,0.42 a 2.55,2.55 0 0 0 -0.59,2.49 22,22 0 0 0 2.87,5 2.56,2.56 0 0 0 2.45,0.73 c 1.35,-0.43 1.75,-2.09 2.41,-3.34 a 11.42,11.42 0 0 1 5.6,-4.92 30.64,30.64 0 0 1 5.4,-1.75"
           id="path918" />
        <path
           class="cls-4"
           d="m 46.27,90.35 a 11.27,11.27 0 0 1 -4.6,5.37 c -1.25,0.66 -2.92,1.06 -3.34,2.41 a 2.56,2.56 0 0 0 0.73,2.45 21.79,21.79 0 0 0 5,2.87 2.55,2.55 0 0 0 2.49,-0.59 c 1,-1 0.47,-2.68 0.42,-4.1 a 11.34,11.34 0 0 1 2.33,-6.91"
           id="path920" />
        <circle
           class="cls-4"
           cx="49.5"
           cy="52.5"
           r="4.5"
           id="circle922" />
        <circle
           class="cls-4"
           cx="77.5"
           cy="77.5"
           r="4.5"
           id="circle924" />
        <circle
           class="cls-4"
           cx="64.5"
           cy="65.5"
           r="4.5"
           id="circle926" />
        <circle
           class="cls-4"
           cx="74.5"
           cy="49.5"
           r="4.5"
           id="circle928" />
        <circle
           class="cls-4"
           cx="49.5"
           cy="76.5"
           r="4.5"
           id="circle930" />
      </g>
    </g>
  </g>
</svg>
